<svg id="visual" viewBox="0 0 900 600" width="900" height="600" xmlns="http://www.w3.org/2000/svg" xmlns:xlink="http://www.w3.org/1999/xlink" version="1.1"><rect x="0" y="0" width="900" height="600" fill="#002233"></rect><path d="M0 376L21.5 391.8C43 407.7 86 439.3 128.8 459.5C171.7 479.7 214.3 488.3 257.2 496.5C300 504.7 343 512.3 385.8 509.2C428.7 506 471.3 492 514.2 485.5C557 479 600 480 642.8 480.3C685.7 480.7 728.3 480.3 771.2 466.3C814 452.3 857 424.7 878.5 410.8L900 397L900 601L878.5 601C857 601 814 601 771.2 601C728.3 601 685.7 601 642.8 601C600 601 557 601 514.2 601C471.3 601 428.7 601 385.8 601C343 601 300 601 257.2 601C214.3 601 171.7 601 128.8 601C86 601 43 601 21.5 601L0 601Z" fill="#0066FF" stroke-linecap="round" stroke-linejoin="miter"></path></svg>